<?xml version="1.0" encoding="UTF-8"?>
<svg id="svg5" xmlns="http://www.w3.org/2000/svg" viewBox="0 0 985.67 215.48">
  <defs>
    <style>
      .cls-1 {
        fill: #606060;
        font-family: MyriadPro-Regular, 'Myriad Pro';
        font-size: 73.34px;
      }

      .cls-2, .cls-3, .cls-4 {
        stroke-width: 0px;
      }

      .cls-5 {
        letter-spacing: -.02em;
      }

      .cls-3 {
        fill: #fff;
      }

      .cls-4 {
        fill: #f03;
      }
    </style>
  </defs>
  <g id="layer1">
    <g id="g2366">
      <path id="path1412" class="cls-4" d="m140.61,215.48s88.19,0,110.06-5.82c12.32-3.3,21.58-12.81,24.83-24.56,6.01-21.55,6.01-66.88,6.01-66.88,0,0,0-45.04-6.01-66.4-3.25-12.04-12.51-21.36-24.83-24.56-21.87-5.92-110.06-5.92-110.06-5.92,0,0-87.99,0-109.77,5.92-12.12,3.2-21.58,12.52-25.03,24.56C0,73.17,0,118.22,0,118.22c0,0,0,45.33,5.81,66.88,3.45,11.75,12.91,21.26,25.03,24.56,21.78,5.82,109.77,5.82,109.77,5.82h0Z"/>
      <path id="path1414" class="cls-3" d="m184.44,118.41l-72.8-41.26v82.51l72.8-41.26Z"/>
    </g>
    <g id="g2362">
      <path id="path1418" class="cls-2" d="m360.51,204.8v-53l33.68-110.08h-25.14l-12.81,49.99c-2.91,11.45-5.53,23.39-7.47,34.46h-1.55c-1.07-9.71-4.17-22.42-7.28-34.65l-12.43-49.8h-25.14l33.2,110.08v53h24.95Z"/>
      <path id="path1420" class="cls-2" d="m428.09,82.49c-29.41,0-39.51,16.99-39.51,53.58v17.38c0,32.81,6.31,53.39,38.93,53.39s39.02-19.61,39.02-53.39v-17.38c0-32.71-6.6-53.58-38.44-53.58h0Zm12.52,81.73c0,15.92-2.82,25.92-13.01,25.92s-12.81-10.1-12.81-25.92v-39.22c0-13.59,1.94-25.72,12.81-25.72,11.45,0,13.01,12.81,13.01,25.72v39.22Z"/>
      <path id="path1422" class="cls-2" d="m507.41,206.65c14.17,0,23.01-5.92,30.29-16.6h1.07l1.07,14.76h19.32v-119.98h-25.63v96.39c-2.72,4.76-9.03,8.25-14.95,8.25-7.47,0-9.8-5.92-9.8-15.82v-88.82h-25.53v89.99c0,19.51,5.63,31.84,24.17,31.84h0Z"/>
      <path id="path1424" class="cls-2" d="m609.87,204.8V61.62h29.51v-19.9h-84.36v19.9h29.51v143.18h25.34Z"/>
      <path id="path1426" class="cls-2" d="m658.86,206.65c14.17,0,23.01-5.92,30.29-16.6h1.07l1.07,14.76h19.32v-119.98h-25.63v96.39c-2.72,4.76-9.03,8.25-14.95,8.25-7.47,0-9.8-5.92-9.8-15.82v-88.82h-25.53v89.99c0,19.51,5.63,31.84,24.17,31.84h0Z"/>
      <path id="path1428" class="cls-2" d="m783.13,82.2c-12.43,0-21.36,5.44-27.28,14.27h-1.26c.78-11.65,1.36-21.55,1.36-29.41v-31.74h-24.75l-.1,104.26.1,65.23h21.55l1.84-11.65h.68c5.73,7.86,14.56,12.81,26.31,12.81,19.51,0,27.86-16.79,27.86-52.52v-18.54c0-33.39-3.79-52.71-26.31-52.71h0Zm.87,71.25c0,22.33-3.3,35.63-13.69,35.63-4.85,0-11.55-2.33-14.56-6.7v-71.35c2.62-6.8,8.45-11.75,14.95-11.75,10.48,0,13.3,12.72,13.3,35.92v18.25Z"/>
      <path id="path1430" class="cls-2" d="m899.4,132.97c0-28.93-2.91-50.38-36.21-50.38-31.35,0-38.34,20.87-38.34,51.55v21.06c0,29.9,6.41,51.64,37.57,51.64,24.66,0,37.37-12.33,35.92-36.21l-21.84-1.16c-.29,14.76-3.69,20.77-13.49,20.77-12.33,0-12.91-11.75-12.91-29.22v-8.15h49.31v-19.9Zm-36.79-34.27c11.84,0,12.72,11.16,12.72,30.09v9.8h-25.24v-9.8c0-18.73.78-30.09,12.52-30.09Z"/>
    </g>
  </g>
  <text class="cls-1" transform="translate(894.15 61.39)"><tspan class="cls-5" x="0" y="0">C</tspan><tspan x="41" y="0">O</tspan></text>
</svg>